<svg xmlns="http://www.w3.org/2000/svg" xmlns:xlink="http://www.w3.org/1999/xlink" viewBox="0 0 657.737 343.829">
  <g fill="#fff" fill-rule="evenodd">
    <use xlink:href="#a"/>
    <use xlink:href="#b"/>
    <use xlink:href="#c"/>
    <use xlink:href="#a"/>
    <use xlink:href="#b"/>
    <use xlink:href="#c"/>
    <use xlink:href="#a" x="147" y="-126"/>
    <use xlink:href="#b" x="147" y="-126"/>
    <use xlink:href="#c" x="147" y="-126"/>
    <use xlink:href="#a" x="147" y="-126"/>
    <use xlink:href="#b" x="147" y="-126"/>
    <use xlink:href="#c" x="147" y="-126"/>
    <use xlink:href="#a" x="284" y="-29"/>
    <use xlink:href="#b" x="284" y="-29"/>
    <use xlink:href="#c" x="284" y="-29"/>
    <use xlink:href="#a" x="284" y="-29"/>
    <use xlink:href="#b" x="284" y="-29"/>
    <use xlink:href="#c" x="284" y="-29"/>
    <use xlink:href="#a" x="372" y="-181"/>
    <use xlink:href="#b" x="372" y="-181"/>
    <use xlink:href="#c" x="372" y="-181"/>
    <use xlink:href="#a" x="372" y="-181"/>
    <use xlink:href="#b" x="372" y="-181"/>
    <use xlink:href="#c" x="372" y="-181"/>
    <use xlink:href="#a" x="541" y="-91.171"/>
    <use xlink:href="#b" x="541" y="-91.171"/>
    <use xlink:href="#c" x="541" y="-91.171"/>
    <use xlink:href="#a" x="541" y="-91.171"/>
    <use xlink:href="#b" x="541" y="-91.171"/>
    <use xlink:href="#c" x="541" y="-91.171"/>
    <use xlink:href="#d"/>
    <use xlink:href="#b" x="583" y="-274.171"/>
    <use xlink:href="#c" x="583" y="-274.171"/>
    <use xlink:href="#d"/>
    <use xlink:href="#b" x="583" y="-274.171"/>
    <use xlink:href="#c" x="583" y="-274.171"/>
  </g>
  <defs>
    <path id="a" d="M70.915 291.558a4.825 4.825 0 0 1-.555 4.21c-1.722 3.149-5.055 6.041-8.38 8.628l-2.747 2.091-2.115 1.6a34.813 34.813 0 0 0-3.784 3.249 33.462 33.462 0 0 1-4.52 3.627l-2.862 1.98-.147.1-2.692 1.857a32.268 32.268 0 0 0-4.277 3.389 2.755 2.755 0 0 0-.73 1.045c-.021.089-.005.12 0 .13s.045.071.185.137a5.49 5.49 0 0 0 2.812.283 30.8 30.8 0 0 0 3.887-.726l.765-.182a26.047 26.047 0 0 1 7.711-1.076 37.026 37.026 0 0 1 9.842 1.832 7.043 7.043 0 0 1 3.223 2.279 4.247 4.247 0 0 1 .506 3.79 9.05 9.05 0 0 1-3.645 5.181 15.37 15.37 0 0 1-5.66 2.159c-1.316.269-2.7.461-4.045.649l-2.132.31a18.305 18.305 0 0 0-5.335 1.48 44.3 44.3 0 0 1-19.923 4.244c-7.248-.124-14.466-2.047-19.407-6.651l-.013-.015-.012-.013c-4.228-4.559-6-8.716-6.6-12.336a24.837 24.837 0 0 1 .3-8.61l.051-.3a10.121 10.121 0 0 1 .847-2.39c.438-.94 1.021-2.024 1.707-3.2 1.372-2.342 3.166-5.055 5.053-7.693s3.875-5.21 5.635-7.271a45.02 45.02 0 0 1 2.438-2.663 11.331 11.331 0 0 1 1.915-1.605 23.03 23.03 0 0 0 3.68-3.319l1.787-1.871 3.151-3.268a39.127 39.127 0 0 1 5.182-4.535 10.663 10.663 0 0 1 2.438-1.3 4.265 4.265 0 0 1 1.954-.259l.06-.076a9.67 9.67 0 0 1 .658-.743 4.562 4.562 0 0 1 2.137-1.358l.22-.047a2.283 2.283 0 0 1 1.966.211 1.023 1.023 0 0 1 .435.655 1.27 1.27 0 0 1-.085.7 3.693 3.693 0 0 1-.77 1.1 10.261 10.261 0 0 1-.914.84c-.131.108-.243.2-.323.257l-.079.06-.76.916a10.37 10.37 0 0 1 .076 3.935 25.272 25.272 0 0 1-1.309 5.035c-1.237 3.386-3.135 6.717-5.111 8.406a32.654 32.654 0 0 0-6.175 7.384 17.256 17.256 0 0 0-1.719 3.556 5.134 5.134 0 0 0-.263 1.31 1.377 1.377 0 0 0 .14.761c.483.8 1.808 1.307 3.6.848a9.83 9.83 0 0 0 5.579-4.571 15.836 15.836 0 0 1 4.437-4.212 58.3 58.3 0 0 1 6.527-3.768c1.749-.89 3.537-1.747 5.269-2.576 2.964-1.419 5.762-2.759 7.914-4.056 3.515-2.118 7.433-2.687 10.1-1.88a4.331 4.331 0 0 1 2.902 2.346zm-32.388-13.586.489-.59.051-.037.021-.016.084-.063.3-.235a9.305 9.305 0 0 0 .823-.755 2.772 2.772 0 0 0 .565-.777.339.339 0 0 0 .033-.146.178.178 0 0 0-.023-.019c-.32-.225-.569-.174-1.173-.05l-.243.049a3.638 3.638 0 0 0-1.618 1.078c-.154.157-.293.311-.41.449a2.873 2.873 0 0 1 1.101 1.112zm29.191 12.2c-2.331-.706-5.957-.231-9.294 1.78-2.187 1.318-5.069 2.7-8.07 4.136l-5.176 2.531a57.363 57.363 0 0 0-6.413 3.7 14.884 14.884 0 0 0-4.16 3.924 10.813 10.813 0 0 1-6.174 5c-2 .513-3.9.039-4.7-1.3a2.353 2.353 0 0 1-.283-1.317 6.113 6.113 0 0 1 .308-1.573 18.227 18.227 0 0 1 1.818-3.774 33.648 33.648 0 0 1 6.38-7.624c1.782-1.524 3.607-4.665 4.821-7.989a24.274 24.274 0 0 0 1.258-4.831 8.88 8.88 0 0 0-.116-3.759 2.016 2.016 0 0 0-1.422-1.518 3.022 3.022 0 0 0-1.716.17 9.684 9.684 0 0 0-2.2 1.184 38.188 38.188 0 0 0-5.04 4.416c-1.066 1.07-2.114 2.175-3.117 3.233l-1.811 1.9a23.719 23.719 0 0 1-3.888 3.484 10.443 10.443 0 0 0-1.727 1.459c-.706.7-1.513 1.584-2.382 2.6-1.737 2.035-3.707 4.583-5.582 7.2s-3.651 5.307-5 7.617c-.676 1.155-1.244 2.21-1.664 3.112a9.225 9.225 0 0 0-.767 2.133l-.047.281a23.915 23.915 0 0 0-.3 8.3c.567 3.406 2.238 7.383 6.337 11.807 4.692 4.364 11.623 6.25 18.729 6.371a43.3 43.3 0 0 0 19.446-4.137 19.251 19.251 0 0 1 5.63-1.576l2.2-.32c1.325-.184 2.644-.368 3.933-.631a14.4 14.4 0 0 0 5.295-2 8.052 8.052 0 0 0 3.249-4.632 3.254 3.254 0 0 0-.363-2.937 6.076 6.076 0 0 0-2.775-1.934 36.147 36.147 0 0 0-9.555-1.763 25.294 25.294 0 0 0-7.414 1.058l-.742.176a31.727 31.727 0 0 1-4.021.754 6.442 6.442 0 0 1-3.335-.374 1.349 1.349 0 0 1-.642-.573 1.165 1.165 0 0 1-.089-.828 3.613 3.613 0 0 1 .982-1.508 33.1 33.1 0 0 1 4.424-3.514l2.7-1.864.148-.1 2.85-1.971a32.614 32.614 0 0 0 4.374-3.5 35.737 35.737 0 0 1 3.9-3.35l2.143-1.626 2.716-2.068c3.332-2.592 6.506-5.372 8.116-8.318a3.856 3.856 0 0 0 .51-3.346 3.348 3.348 0 0 0-2.282-1.775z"/>
    <path id="b" d="M71.813 289.789a5.481 5.481 0 0 1-.629.293l-1.279.4-.507.15-.15.044-.054.016-.139-.48-.139-.48.054-.016.148-.043.5-.149 1.248-.39c.087-.029.257-.116.534-.258l.039-.02.955-.449a3.353 3.353 0 0 1 1.072-.269 1.136 1.136 0 0 1 1.07.521 1.3 1.3 0 0 1 .161.994 1.783 1.783 0 0 1-.429.762 4.277 4.277 0 0 1-1.123.832 7.385 7.385 0 0 0-1.439 1.118l-.531.531-.151.162-.039.043-.01.011-.374-.332-.373-.332.012-.013.045-.049.163-.175.567-.567a8.319 8.319 0 0 1 1.659-1.276 3.3 3.3 0 0 0 .85-.62.808.808 0 0 0 .2-.328.294.294 0 0 0-.046-.242.04.04 0 0 0-.023-.021.376.376 0 0 0-.152-.017 2.418 2.418 0 0 0-.74.2 10.18 10.18 0 0 0-.873.411z"/>
    <path id="c" d="m71.092 326.825-.1.072a13.484 13.484 0 0 1-1.74.993l-1.966.914-.67.289-.189.079-.05.021-.016.006.189.463.19.462.018-.008.052-.021.194-.081.682-.294 2.01-.935a14.285 14.285 0 0 0 1.882-1.08 2.207 2.207 0 0 0 .589-.577.756.756 0 0 0 .114-.5.688.688 0 0 0-.325-.485 2.642 2.642 0 0 0-1.63-.4l-.473.043-.151.016a2.08 2.08 0 0 1-.442.01 6 6 0 0 0-1.87.182l-.71.184-.212.064-.059.019-.016.005.156.475.157.475h.012l.051-.016.193-.058.653-.17a5.1 5.1 0 0 1 1.529-.164 3.038 3.038 0 0 0 .66-.008l.192-.021.385-.035a1.825 1.825 0 0 1 .711.081z"/>
    <path id="d" d="M653.915 17.387a4.825 4.825 0 0 1-.555 4.21c-1.722 3.149-5.055 6.041-8.38 8.628l-2.747 2.091-2.115 1.6a34.813 34.813 0 0 0-3.784 3.249 33.462 33.462 0 0 1-4.52 3.627l-2.862 1.98-.147.1-2.692 1.857a32.268 32.268 0 0 0-4.277 3.389 2.755 2.755 0 0 0-.73 1.045c-.021.089-.005.12 0 .13s.045.071.185.137a5.49 5.49 0 0 0 2.812.283 30.8 30.8 0 0 0 3.887-.726l.765-.182a26.047 26.047 0 0 1 7.711-1.076 37.026 37.026 0 0 1 9.842 1.832 7.043 7.043 0 0 1 3.223 2.279 4.247 4.247 0 0 1 .506 3.79 9.05 9.05 0 0 1-3.645 5.181 15.37 15.37 0 0 1-5.66 2.159c-1.316.269-2.7.461-4.045.649l-2.132.31a18.305 18.305 0 0 0-5.335 1.48 44.3 44.3 0 0 1-19.923 4.244c-7.248-.124-14.466-2.047-19.407-6.651l-.013-.015-.012-.013c-4.228-4.559-6-8.716-6.6-12.336a24.837 24.837 0 0 1 .3-8.61l.051-.3a10.121 10.121 0 0 1 .847-2.39c.438-.94 1.021-2.024 1.707-3.2 1.372-2.342 3.166-5.055 5.053-7.693s3.875-5.21 5.635-7.271a45.02 45.02 0 0 1 2.438-2.663 11.331 11.331 0 0 1 1.915-1.605 23.03 23.03 0 0 0 3.68-3.319l1.787-1.871 3.151-3.268a39.127 39.127 0 0 1 5.182-4.535 10.663 10.663 0 0 1 2.438-1.3 4.265 4.265 0 0 1 1.954-.259l.06-.076a9.67 9.67 0 0 1 .658-.743 4.562 4.562 0 0 1 2.137-1.358l.22-.047a2.283 2.283 0 0 1 1.966.211 1.023 1.023 0 0 1 .435.655 1.27 1.27 0 0 1-.085.7 3.693 3.693 0 0 1-.77 1.1 10.261 10.261 0 0 1-.914.84c-.131.108-.243.2-.323.257l-.079.06-.76.916a10.37 10.37 0 0 1 .076 3.935 25.272 25.272 0 0 1-1.309 5.035c-1.237 3.386-3.135 6.717-5.111 8.406a32.654 32.654 0 0 0-6.175 7.384 17.256 17.256 0 0 0-1.719 3.556 5.134 5.134 0 0 0-.263 1.31 1.377 1.377 0 0 0 .14.761c.483.8 1.808 1.307 3.6.848a9.83 9.83 0 0 0 5.579-4.571 15.836 15.836 0 0 1 4.437-4.212 58.3 58.3 0 0 1 6.527-3.768c1.749-.89 3.537-1.747 5.269-2.576 2.964-1.419 5.762-2.759 7.914-4.056 3.515-2.118 7.433-2.687 10.1-1.88a4.331 4.331 0 0 1 2.902 2.346zM621.527 3.801l.489-.59.051-.037.021-.016.084-.063.3-.235a9.305 9.305 0 0 0 .823-.755 2.772 2.772 0 0 0 .565-.777.339.339 0 0 0 .033-.146.178.178 0 0 0-.023-.019c-.32-.225-.569-.174-1.173-.05l-.243.049a3.638 3.638 0 0 0-1.618 1.078c-.154.157-.293.311-.41.449a2.873 2.873 0 0 1 1.101 1.112zm29.191 12.2c-2.331-.706-5.957-.231-9.294 1.78-2.187 1.318-5.069 2.7-8.07 4.136l-5.176 2.531a57.363 57.363 0 0 0-6.413 3.7 14.884 14.884 0 0 0-4.16 3.924 10.813 10.813 0 0 1-6.174 5c-2 .513-3.9.039-4.7-1.3a2.353 2.353 0 0 1-.283-1.317 6.113 6.113 0 0 1 .308-1.573 18.227 18.227 0 0 1 1.818-3.774 33.648 33.648 0 0 1 6.38-7.624c1.782-1.524 3.607-4.665 4.821-7.989a24.274 24.274 0 0 0 1.258-4.831 8.88 8.88 0 0 0-.116-3.759 2.016 2.016 0 0 0-1.422-1.518 3.022 3.022 0 0 0-1.716.17 9.684 9.684 0 0 0-2.2 1.184 38.188 38.188 0 0 0-5.04 4.416c-1.066 1.07-2.114 2.175-3.117 3.233l-1.811 1.9a23.719 23.719 0 0 1-3.888 3.484 10.443 10.443 0 0 0-1.727 1.459c-.706.7-1.513 1.584-2.382 2.6-1.737 2.035-3.707 4.583-5.582 7.2s-3.651 5.307-5 7.617c-.676 1.155-1.244 2.21-1.664 3.112a9.225 9.225 0 0 0-.767 2.133l-.047.281a23.915 23.915 0 0 0-.3 8.3c.567 3.406 2.238 7.383 6.337 11.807 4.692 4.364 11.623 6.25 18.729 6.371a43.3 43.3 0 0 0 19.446-4.137 19.251 19.251 0 0 1 5.63-1.576l2.2-.32c1.325-.184 2.644-.368 3.933-.631a14.4 14.4 0 0 0 5.295-2 8.052 8.052 0 0 0 3.249-4.632 3.254 3.254 0 0 0-.363-2.937 6.076 6.076 0 0 0-2.775-1.934 36.147 36.147 0 0 0-9.555-1.763 25.294 25.294 0 0 0-7.414 1.058l-.742.176a31.727 31.727 0 0 1-4.021.754 6.442 6.442 0 0 1-3.335-.374 1.349 1.349 0 0 1-.642-.573 1.165 1.165 0 0 1-.089-.828 3.613 3.613 0 0 1 .982-1.508 33.1 33.1 0 0 1 4.424-3.514l2.7-1.864.148-.1 2.85-1.971a32.614 32.614 0 0 0 4.374-3.5 35.737 35.737 0 0 1 3.9-3.35l2.143-1.626 2.716-2.068c3.332-2.592 6.506-5.372 8.116-8.318a3.856 3.856 0 0 0 .51-3.346 3.348 3.348 0 0 0-2.282-1.775z"/>
  </defs>
</svg>
